Coordinates
version=1
nRows=13
nColumns=22
inDegrees=yes

Units are S.I. units (second, meters, Newtons, ...)
If the header above contains a line with 'inDegrees', this indicates whether rotational values are in degrees (yes) or radians (no).

endheader
time	pelvis_tilt	pelvis_list	pelvis_rotation	pelvis_tx	pelvis_ty	pelvis_tz	hip_flexion_r	hip_adduction_r	hip_rotation_r	knee_angle_r	ankle_angle_r	subtalar_angle_r	hip_flexion_l	hip_adduction_l	hip_rotation_l	knee_angle_l	ankle_angle_l	subtalar_angle_l	lumbar_extension	lumbar_bending	lumbar_rotation
      2.57000000	     -4.72517079	     -0.39224042	    -42.06314453	     -0.45996754	      0.92652544	      0.24847157	     -3.53761991	      9.72189466	     14.11552307	    -24.92758458	     16.62200212	     -5.05563907	     30.74423158	     -4.64666278	     10.98298489	    -22.91308215	      2.92628223	      3.26984652	     -5.05670752	     -1.19185028	     10.22929860
      2.58000000	     -4.66962465	     -0.24353164	    -42.22228336	     -0.45161440	      0.92717294	      0.25316344	     -3.27613964	      9.56270305	     14.01321231	    -26.28072407	     15.73968347	     -4.62747867	     30.62472084	     -4.36554188	     10.77494369	    -23.63331821	      2.23729817	      2.96472173	     -4.86601288	     -1.44180255	     10.00486385
      2.59000000	     -4.61648453	     -0.13930092	    -42.37711782	     -0.44320726	      0.92803086	      0.25792798	     -2.93671496	      9.44493968	     13.81697280	    -27.77499125	     14.62916484	     -3.96840475	     30.41729620	     -4.14475138	     10.52959455	    -24.27177803	      1.73003070	      2.70979760	     -4.69724835	     -1.64455164	      9.74171594
      2.60000000	     -4.55817649	     -0.06866237	    -42.55387265	     -0.43484483	      0.92905377	      0.26274726	     -2.47561163	      9.34955214	     13.49414704	    -29.46535731	     13.34765647	     -3.14399459	     30.12083598	     -3.98129238	     10.24443251	    -24.82101351	      1.37596038	      2.58924786	     -4.55927924	     -1.82299333	      9.48806185
      2.61000000	     -4.50033199	     -0.01950558	    -42.75380271	     -0.42655473	      0.93017303	      0.26757316	     -1.86721089	      9.26171484	     13.03323473	    -31.35389398	     11.88568940	     -2.17329676	     29.76678637	     -3.86286134	      9.90680118	    -25.30716316	      1.17261460	      2.53564643	     -4.44487436	     -1.97598650	      9.23156959
      2.62000000	     -4.44350802	      0.00032161	    -42.98223522	     -0.41837577	      0.93137121	      0.27238857	     -1.10954725	      9.17584189	     12.43149620	    -33.43089961	     10.25421636	     -0.94031873	     29.33800148	     -3.79538773	      9.52323041	    -25.70229203	      1.14091621	      2.49201683	     -4.36323914	     -2.09445985	      8.95570028
      2.63000000	     -4.37670346	      0.01515524	    -43.23954327	     -0.41034271	      0.93257963	      0.27713637	     -0.18517985	      9.05101502	     11.68058812	    -35.69062532	      8.50800046	      0.44042822	     28.86192156	     -3.74084866	      9.10164404	    -26.03671175	      1.24296704	      2.43923231	     -4.31306832	     -2.20544757	      8.66813278
      2.64000000	     -4.29894244	      0.04499705	    -43.52424222	     -0.40248169	      0.93373913	      0.28177144	      0.91894837	      8.85310699	     10.77534540	    -38.11417080	      6.72479364	      1.90617479	     28.35884456	     -3.67743693	      8.64270840	    -26.31547357	      1.46015338	      2.35209967	     -4.28502484	     -2.32289868	      8.35897171
      2.65000000	     -4.18551352	      0.08408113	    -43.83554459	     -0.39478387	      0.93487092	      0.28627624	      2.15222738	      8.55970364	      9.76247327	    -40.64612855	      4.99043265	      3.40324175	     27.79010241	     -3.58198181	      8.17899259	    -26.51635644	      1.77287492	      2.22129517	     -4.30428692	     -2.45713497	      8.03951655
      2.66000000	     -4.04057514	      0.16778269	    -44.15673708	     -0.38726061	      0.93586797	      0.29061793	      3.52887717	      8.13962156	      8.64984460	    -43.25841171	      3.46081472	      4.70530119	     27.22268072	     -3.42529213	      7.68334603	    -26.69507921	      2.16756828	      2.03905948	     -4.34138874	     -2.63574545	      7.66872224
      2.67000000	     -3.83755299	      0.27651008	    -44.48719345	     -0.37989826	      0.93679059	      0.29480139	      4.97708035	      7.58870033	      7.49260773	    -45.88684208	      2.23747359	      5.77411085	     26.61326424	     -3.20176055	      7.16487548	    -26.83498019	      2.60858650	      1.82197413	     -4.43194026	     -2.86084257	      7.25093810
      2.68000000	     -3.57905074	      0.39477570	    -44.82289294	     -0.37266766	      0.93767155	      0.29886794	      6.44910548	      6.91871272	      6.30663451	    -48.46393040	      1.39317562	      6.43668286	     25.94377460	     -2.92820282	      6.61766391	    -26.91655904	      3.08456394	      1.59403101	     -4.57697310	     -3.11709254	      6.79039024
      2.69000000	     -3.27268489	      0.49804054	    -45.16796529	     -0.36557355	      0.93854871	      0.30284421	      7.90467104	      6.17316085	      5.15313653	    -50.93873623	      0.91321167	      6.71927836	     25.20247119	     -2.62106418	      6.09341091	    -26.94560604	      3.60702019	      1.36785114	     -4.78842573	     -3.38220793	      6.30349778
